<svg enable-background="new 0 0 74.91 74.91" viewBox="0 0 74.91 74.91" xmlns="http://www.w3.org/2000/svg"><path d="m65.3 74.91h-55.69c-5.28 0-9.61-4.32-9.61-9.61v-55.69c0-5.28 4.33-9.61 9.61-9.61h55.69c5.29 0 9.61 4.33 9.61 9.61v55.69c0 5.29-4.32 9.61-9.61 9.61z" fill="#fff"/><g fill="#e9476d"><path d="m35.79 58.87c0 6.04-9.16 6.04-9.16 0s9.16-6.04 9.16 0z"/><path d="m51.68 58.87c0 6.04-9.16 6.04-9.16 0s9.16-6.04 9.16 0z"/><path d="m29.1 17.34h-14.69v7.12h8.45c1.42-2.95 3.54-5.38 6.24-7.12z"/></g><path d="m52.6 45.46c-3.63 3.56-7.44 4.96-12.09 4.96-9.1 0-16.67-5.47-16.67-16.6s7.57-16.6 16.67-16.6c4.45 0 7.89 1.27 11.32 4.64l-4.9 5.15c-1.85-1.65-4.14-2.48-6.3-2.48-5.22 0-9.03 3.82-9.03 9.29 0 5.98 4.07 9.16 8.91 9.16 2.48 0 4.96-.7 6.87-2.61z" fill="#25548d"/></svg>