<svg enable-background="new 0 0 314.1 56.3" viewBox="0 0 314.1 56.3" xmlns="http://www.w3.org/2000/svg"><path d="m21.4 51.8c0 6-9.2 6-9.2 0 0-6.1 9.2-6.1 9.2 0z" fill="#e9476d"/><path d="m37.3 51.8c0 6-9.2 6-9.2 0 0-6.1 9.2-6.1 9.2 0z" fill="#e9476d"/><path d="m14.7 10.2h-14.7v7.1h8.4c1.5-2.9 3.6-5.3 6.3-7.1z" fill="#e9476d"/><g fill="#25548d"><path d="m38.2 38.4c-3.6 3.6-7.4 5-12.1 5-9.1 0-16.7-5.5-16.7-16.6s7.6-16.6 16.7-16.6c4.5 0 7.9 1.3 11.3 4.6l-4.9 5.2c-1.8-1.7-4.1-2.5-6.3-2.5-5.2 0-9 3.8-9 9.3 0 6 4.1 9.2 8.9 9.2 2.5 0 5-.7 6.9-2.6z"/><path d="m48.8 29.5c.5 3.9 3.9 6.7 9.4 6.7 2.9 0 6.6-1.1 8.4-2.9l5 4.9c-3.3 3.4-8.7 5.1-13.5 5.1-10.8 0-17.2-6.7-17.2-16.7 0-9.5 6.5-16.4 16.7-16.4 10.5 0 17 6.5 15.8 19.4h-24.6zm17.1-6.5c-.5-4.1-3.7-6.1-8.1-6.1-4.2 0-7.6 2-8.8 6.1z"/><path d="m99.3 19.3c-2.2-2.1-4.8-2.8-7.8-2.8-3.7 0-5.7 1.1-5.7 3.1s1.8 3.2 5.9 3.4c5.9.4 13.4 1.7 13.4 10.1 0 5.5-4.5 10.3-13.5 10.3-5 0-9.9-.8-14.5-5.6l3.8-5.5c3 3.1 7.3 4.3 10.8 4.4 2.9.1 5.7-1.1 5.7-3.4 0-2.2-1.8-3.4-6.2-3.6-5.9-.4-13-2.6-13-9.7 0-7.3 7.5-9.8 13.2-9.8 4.9 0 8.6 1 12.2 4.1z"/><path d="m122.5 2.2v8.9h8.7v6.7h-8.7v13.5c0 3 1.7 4.5 4.1 4.5 1.2 0 2.6-.4 3.8-1l2.2 6.6c-2.2.9-4.1 1.3-6.4 1.3-6.8.3-11.3-3.6-11.3-11.5v-13.4h-5.9v-6.7h5.9v-8.1z"/><path d="m162.3 11h7.4v31.4h-7.3l-.4-4.6c-1.8 3.7-6.7 5.5-10.2 5.5-9.3.1-16.2-5.7-16.2-16.7 0-10.8 7.2-16.5 16.3-16.4 4.2 0 8.2 2 10 5.1zm-18.8 15.7c0 6 4.1 9.5 9.3 9.5 12.2 0 12.2-19 0-19-5.1 0-9.3 3.5-9.3 9.5z"/><path d="m199 42.4v-16.8c0-4.1-2.2-7.9-6.4-7.9s-6.7 3.8-6.7 7.9v16.8h-7.8v-31.5h7.2l.6 3.8c1.7-3.2 5.3-4.3 8.3-4.3 3.8 0 7.5 1.5 9.3 5.9 2.8-4.5 6.4-5.7 10.5-5.7 8.9 0 13.3 5.5 13.3 14.9v16.9h-7.8v-16.9c0-4.1-1.7-7.6-5.9-7.6s-6.8 3.6-6.8 7.8v16.8h-7.8z"/><path d="m266 26.7c0 9-6.2 16.3-16.3 16.3-10.2 0-16.3-7.3-16.3-16.3s6.2-16.3 16.2-16.3 16.4 7.4 16.4 16.3zm-24.9 0c0 4.8 2.9 9.2 8.5 9.2 5.7 0 8.5-4.5 8.5-9.2s-3.3-9.3-8.5-9.3c-5.6 0-8.5 4.6-8.5 9.3z"/><path d="m292.2 19.3c-2.2-2.1-4.8-2.8-7.8-2.8-3.7 0-5.7 1.1-5.7 3.1s1.8 3.2 5.9 3.4c5.9.4 13.4 1.7 13.4 10.1 0 5.5-4.5 10.3-13.5 10.3-5 0-9.9-.8-14.5-5.6l3.8-5.5c3 3.1 7.3 4.3 10.8 4.4 2.9.1 5.7-1.1 5.7-3.4 0-2.2-1.8-3.4-6.2-3.6-5.9-.4-13-2.6-13-9.7 0-7.3 7.5-9.8 13.2-9.8 4.9 0 8.6 1 12.2 4.1z"/></g><path d="m314.1 42.1c0 6.7-10.2 6.7-10.2 0s10.2-6.7 10.2 0z" fill="#e9476d"/><path d="m304.8 0h8.3v32.8h-8.3z" fill="#25548d"/></svg>