<svg enable-background="new 0 0 89.86 108.7" viewBox="0 0 89.86 108.7" xmlns="http://www.w3.org/2000/svg"><g fill="#e9476d"><path d="m50.31 98.03c0 14.22-21.56 14.22-21.56 0s21.56-14.22 21.56 0z"/><path d="m87.7 98.03c0 14.22-21.56 14.22-21.56 0s21.56-14.22 21.56 0z"/><path d="m34.57.28h-34.57v16.77h19.88c3.35-6.95 8.33-12.67 14.69-16.77z"/></g><path d="m89.86 66.47c-8.53 8.38-17.52 11.68-28.45 11.68-21.41 0-39.22-12.87-39.22-39.07 0-26.21 17.81-39.08 39.22-39.08 10.48 0 18.56 2.99 26.65 10.93l-11.53 12.13c-4.34-3.89-9.73-5.84-14.82-5.84-12.28 0-21.26 8.98-21.26 21.86 0 14.07 9.58 21.56 20.96 21.56 5.84 0 11.68-1.65 16.17-6.14z" fill="#fff"/></svg>